<svg width="0" height="0" class="hidden">
  <symbol fill="none" xmlns="http://www.w3.org/2000/svg" viewBox="0 0 40 40" id="lupa">
    <path d="M21.888 15.1038H17.3567V10.5726C17.3567 10.1557 17.0184 9.81738 16.6015 9.81738C16.1847 9.81738 15.8463 10.1557 15.8463 10.5726V15.1038H11.3151C10.8983 15.1038 10.5599 15.4421 10.5599 15.859C10.5599 16.2759 10.8983 16.6142 11.3151 16.6142H15.8463V21.1454C15.8463 21.5623 16.1847 21.9006 16.6015 21.9006C17.0184 21.9006 17.3567 21.5623 17.3567 21.1454V16.6142H21.888C22.3048 16.6142 22.6432 16.2759 22.6432 15.859C22.6432 15.4421 22.3048 15.1038 21.888 15.1038Z" fill="white"></path>
    <path d="M39.0469 38.7214L27.8253 27.0513C30.6876 24.1808 32.4608 20.2235 32.4608 15.8592C32.4608 7.114 25.3468 0 16.6015 0C7.85631 0 0.74231 7.114 0.74231 15.8592C0.74231 24.6045 7.85631 31.7185 16.6015 31.7185C20.4402 31.7185 23.9632 30.3463 26.7092 28.0693L37.9579 39.7682C38.1059 39.923 38.3038 40 38.5024 40C38.6912 40 38.8792 39.9298 39.0257 39.7893C39.3263 39.5001 39.3354 39.022 39.0469 38.7214ZM2.25271 15.8592C2.25271 7.94698 8.68929 1.5104 16.6015 1.5104C24.5138 1.5104 30.9504 7.94698 30.9504 15.8592C30.9504 23.7715 24.5138 30.2081 16.6015 30.2081C8.68929 30.2081 2.25271 23.7715 2.25271 15.8592Z" fill="white"></path>
  </symbol>
  <symbol fill="none" xmlns="http://www.w3.org/2000/svg" viewBox="0 0 33 32" id="mail">
    <g clip-path="url(#clip0_208_167)">
      <path d="M29.4242 4.36328H3.24231C1.63569 4.36328 0.333252 5.66572 0.333252 7.27241V24.727C0.333252 26.3336 1.63569 27.636 3.24231 27.636H29.4241C31.0308 27.636 32.3332 26.3336 32.3332 24.727V7.27241C32.3333 5.66572 31.0308 4.36328 29.4242 4.36328ZM3.24231 5.81784H29.4241C29.5903 5.81891 29.7551 5.84841 29.9114 5.90509L17.3223 18.4942C16.7816 19.0385 15.9021 19.0413 15.3579 18.5007C15.3558 18.4985 15.3536 18.4963 15.3514 18.4942L2.75506 5.90509C2.91131 5.84841 3.07613 5.81884 3.24231 5.81784ZM1.78781 24.7269V7.27241C1.78038 7.18772 1.78038 7.10253 1.78781 7.01784L10.7914 15.9997L1.78781 24.9815C1.78038 24.8968 1.78038 24.8116 1.78781 24.7269ZM29.4242 26.1815H3.24231C3.07613 26.1804 2.91131 26.1509 2.75506 26.0942L11.8241 17.0252L14.3187 19.5197C15.4271 20.6323 17.2276 20.6357 18.3402 19.5273C18.3428 19.5248 18.3453 19.5222 18.3478 19.5197L20.8423 17.0252L29.9114 26.0942C29.7552 26.1509 29.5904 26.1805 29.4242 26.1815ZM30.8787 24.9815L21.8751 15.9997L30.8787 7.01784C30.8861 7.10253 30.8861 7.18772 30.8787 7.27241V24.727C30.8861 24.8116 30.8861 24.8968 30.8787 24.9815Z" fill="#002AC0"></path>
    </g>
    <defs>
      <clipPath id="clip0_208_167">
        <rect width="32" height="32" fill="white" transform="translate(0.333252)"></rect>
      </clipPath>
    </defs>
  </symbol>
  <symbol fill="none" xmlns="http://www.w3.org/2000/svg" viewBox="0 0 33 46" id="phone">
    <g clip-path="url(#clip0_208_159)">
      <path d="M24.3776 27.584C23.7634 26.9445 23.0226 26.6026 22.2375 26.6026C21.4587 26.6026 20.7115 26.9382 20.072 27.5777L18.0712 29.5722C17.9066 29.4835 17.742 29.4012 17.5837 29.3189C17.3557 29.2049 17.1404 29.0973 16.9568 28.9833C15.0826 27.793 13.3794 26.2417 11.7458 24.2346C10.9544 23.2341 10.4225 22.392 10.0363 21.5372C10.5555 21.0624 11.0367 20.5685 11.5052 20.0936C11.6825 19.9163 11.8598 19.7327 12.0371 19.5554C13.3667 18.2258 13.3667 16.5035 12.0371 15.1739L10.3085 13.4453C10.1122 13.249 9.90963 13.0464 9.71968 12.8438C9.33978 12.4512 8.94088 12.046 8.52932 11.6661C7.91515 11.0583 7.18067 10.7354 6.4082 10.7354C5.63573 10.7354 4.88859 11.0583 4.25542 11.6661C4.24909 11.6724 4.24909 11.6724 4.24276 11.6788L2.08998 13.8506C1.27952 14.661 0.817303 15.6488 0.715995 16.7948C0.564034 18.6437 1.10856 20.3659 1.52645 21.4929C2.55219 24.2599 4.08446 26.8242 6.37021 29.5722C9.1435 32.8837 12.4803 35.4987 16.292 37.3412C17.7483 38.0313 19.6921 38.8481 21.8639 38.9874C21.9969 38.9938 22.1362 39.0001 22.2628 39.0001C23.7254 39.0001 24.9538 38.4746 25.9162 37.4298C25.9225 37.4172 25.9352 37.4108 25.9415 37.3982C26.2708 36.9993 26.6507 36.6384 27.0496 36.2521C27.3218 35.9925 27.6004 35.7203 27.8727 35.4353C28.4995 34.7832 28.8288 34.0234 28.8288 33.2446C28.8288 32.4594 28.4932 31.706 27.8537 31.0728L24.3776 27.584ZM26.6443 34.2513C26.638 34.2513 26.638 34.2576 26.6443 34.2513C26.3974 34.5172 26.1441 34.7579 25.8719 35.0238C25.4603 35.4164 25.0424 35.8279 24.6499 36.2901C24.0103 36.974 23.2569 37.2969 22.2691 37.2969C22.1742 37.2969 22.0728 37.2969 21.9779 37.2905C20.0974 37.1702 18.3498 36.4358 17.0391 35.8089C13.4554 34.074 10.3085 31.611 7.69354 28.4895C5.53443 25.8871 4.0908 23.4811 3.13471 20.8977C2.54586 19.3211 2.33058 18.0928 2.42556 16.9341C2.48887 16.1933 2.7738 15.5791 3.29933 15.0536L5.45844 12.8945C5.7687 12.6032 6.09795 12.4449 6.42086 12.4449C6.81976 12.4449 7.14268 12.6855 7.34529 12.8881C7.35162 12.8945 7.35796 12.9008 7.36429 12.9071C7.75052 13.268 8.11776 13.6416 8.504 14.0405C8.70028 14.2431 8.90289 14.4457 9.10551 14.6547L10.8341 16.3832C11.5052 17.0544 11.5052 17.6749 10.8341 18.3461C10.6504 18.5297 10.4732 18.7133 10.2895 18.8906C9.75767 19.4351 9.25114 19.9417 8.70028 20.4355C8.68762 20.4482 8.67495 20.4545 8.66862 20.4672C8.12409 21.0117 8.2254 21.5436 8.33937 21.9045C8.3457 21.9235 8.35204 21.9425 8.35837 21.9615C8.80792 23.0505 9.44109 24.0763 10.4035 25.2983L10.4098 25.3046C12.1574 27.4574 13.9999 29.1353 16.0324 30.4206C16.292 30.5853 16.5579 30.7182 16.8112 30.8449C17.0391 30.9588 17.2544 31.0665 17.438 31.1804C17.4634 31.1931 17.4887 31.2121 17.514 31.2248C17.7293 31.3324 17.9319 31.3831 18.1409 31.3831C18.6664 31.3831 18.9956 31.0538 19.1033 30.9462L21.2687 28.7807C21.484 28.5654 21.8259 28.3058 22.2248 28.3058C22.6174 28.3058 22.9403 28.5528 23.1366 28.7681C23.1429 28.7744 23.1429 28.7744 23.1492 28.7807L26.638 32.2695C27.2902 32.9153 27.2902 33.5802 26.6443 34.2513Z" fill="#002AC0"></path>
      <path d="M16.8808 16.1361C18.5397 16.4147 20.0467 17.1998 21.2497 18.4029C22.4527 19.6059 23.2315 21.1128 23.5165 22.7717C23.5861 23.1896 23.947 23.4809 24.3586 23.4809C24.4092 23.4809 24.4536 23.4746 24.5042 23.4682C24.9728 23.3922 25.283 22.949 25.207 22.4805C24.8651 20.4733 23.9154 18.6435 22.4654 17.1935C21.0154 15.7435 19.1856 14.7938 17.1784 14.4519C16.7099 14.3759 16.273 14.6861 16.1907 15.1484C16.1084 15.6106 16.4123 16.0601 16.8808 16.1361Z" fill="#002AC0"></path>
      <path d="M30.6334 22.2336C30.0699 18.9285 28.5123 15.9209 26.1189 13.5275C23.7255 11.1342 20.7179 9.57655 17.4128 9.01303C16.9506 8.93072 16.5137 9.2473 16.4314 9.70952C16.3554 10.1781 16.6656 10.615 17.1342 10.6973C20.0848 11.1975 22.7757 12.5968 24.9158 14.7306C27.056 16.8707 28.4489 19.5617 28.9491 22.5122C29.0188 22.9301 29.3797 23.2214 29.7913 23.2214C29.8419 23.2214 29.8862 23.2151 29.9369 23.2087C30.3991 23.1391 30.7157 22.6959 30.6334 22.2336Z" fill="#002AC0"></path>
    </g>
    <defs>
      <clipPath id="clip0_208_159">
        <rect width="32" height="46" fill="white" transform="translate(0.666748)"></rect>
      </clipPath>
    </defs>
  </symbol>
  <symbol fill="none" xmlns="http://www.w3.org/2000/svg" viewBox="0 0 32 46" id="place">
    <path d="M16 9C9.382 9 4 14.382 4 21C4 29.318 14.832 40.246 15.292 40.708C15.488 40.902 15.744 41 16 41C16.256 41 16.512 40.902 16.708 40.708C17.168 40.246 28 29.318 28 21C28 14.382 22.618 9 16 9ZM16 38.554C13.612 35.998 6 27.354 6 21C6 15.486 10.486 11 16 11C21.514 11 26 15.486 26 21C26 27.348 18.388 35.998 16 38.554Z" fill="#002AC0"></path>
    <path d="M16 15C12.692 15 10 17.692 10 21C10 24.308 12.692 27 16 27C19.308 27 22 24.308 22 21C22 17.692 19.308 15 16 15ZM16 25C13.794 25 12 23.206 12 21C12 18.794 13.794 17 16 17C18.206 17 20 18.794 20 21C20 23.206 18.206 25 16 25Z" fill="#002AC0"></path>
  </symbol>
  <symbol fill="none" xmlns="http://www.w3.org/2000/svg" viewBox="0 0 50 50" id="right-arrow">
    <circle cx="25" cy="25" r="24.5" stroke="#C4C7CC"></circle>
    <path d="M31.0125 24.1C28.95 22.0375 26.8875 19.975 24.825 17.9125C24.525 17.6125 24.225 17.3125 23.925 17.0125C23.25 16.3375 22.1625 17.3875 22.875 18.0625C24.9375 20.125 27 22.1875 29.0625 24.25C29.175 24.3625 29.2875 24.475 29.4 24.5875C27.525 26.4625 25.65 28.3375 23.775 30.2125C23.475 30.5125 23.2125 30.775 22.9125 31.075C22.2375 31.75 23.2875 32.8375 23.9625 32.125L30.1125 25.975L30.975 25.1125C31.3125 24.8875 31.3125 24.4 31.0125 24.1Z" fill="#002AC0"></path>
  </symbol>
  <symbol fill="none" xmlns="http://www.w3.org/2000/svg" viewBox="0 0 32 32" id="telegram">
    <g clip-path="url(#clip0_141_3329)">
      <path d="M16 32C24.8387 32 32 24.8387 32 16C32 7.16133 24.8387 0 16 0C7.16133 0 0 7.16133 0 16C0 24.8387 7.16133 32 16 32ZM7.32133 15.6533L22.748 9.70533C23.464 9.44667 24.0893 9.88 23.8573 10.9627L23.8587 10.9613L21.232 23.336C21.0373 24.2133 20.516 24.4267 19.7867 24.0133L15.7867 21.0653L13.8573 22.924C13.644 23.1373 13.464 23.3173 13.0507 23.3173L13.3347 19.2467L20.748 12.5493C21.0707 12.2653 20.676 12.1053 20.2507 12.388L11.0893 18.156L7.14 16.924C6.28267 16.652 6.264 16.0667 7.32133 15.6533Z" fill="#002AC0"></path>
    </g>
    <defs>
      <clipPath id="clip0_141_3329">
        <rect width="32" height="32" fill="white"></rect>
      </clipPath>
    </defs>
  </symbol>
  <symbol fill="none" xmlns="http://www.w3.org/2000/svg" viewBox="0 0 14 15" id="vector">
    <path d="M1 14L13 1M13 1H1M13 1V14" stroke="#002AC0" stroke-width="2"></path>
  </symbol>
  <symbol fill="none" xmlns="http://www.w3.org/2000/svg" viewBox="0 0 32 32" id="vk">
    <g clip-path="url(#clip0_141_3338)">
      <path d="M16 0C12.8355 0 9.74207 0.938384 7.11088 2.69649C4.4797 4.45459 2.42894 6.95345 1.21793 9.87706C0.00693261 12.8007 -0.309921 16.0177 0.307443 19.1214C0.924806 22.2251 2.44866 25.0761 4.6863 27.3137C6.92394 29.5514 9.77487 31.0752 12.8786 31.6926C15.9823 32.3099 19.1993 31.9931 22.1229 30.7821C25.0466 29.5711 27.5454 27.5203 29.3035 24.8891C31.0616 22.2579 32 19.1645 32 16C32 11.7565 30.3143 7.68687 27.3137 4.68629C24.3131 1.68571 20.2435 0 16 0ZM25.2218 22.2618C24.7564 22.3273 22.48 22.2618 22.3618 22.2618C21.7733 22.2695 21.2056 22.0448 20.7818 21.6364C20.3018 21.1727 19.8727 20.6636 19.4036 20.1818C19.2654 20.0339 19.1152 19.8977 18.9546 19.7745C18.58 19.4873 18.2091 19.5509 18.0327 19.9945C17.895 20.472 17.7989 20.9605 17.7455 21.4545C17.7146 21.9018 17.4309 22.1818 16.9291 22.2127C16.6182 22.2291 16.3073 22.2364 16 22.2273C14.8801 22.2212 13.7776 21.9488 12.7836 21.4327C11.7079 20.8339 10.7705 20.0148 10.0327 19.0291C8.82001 17.48 7.85092 15.7782 6.98546 14.0236C6.94001 13.9345 6.05273 12.0473 6.03092 11.9582C5.95092 11.6618 6.03092 11.3764 6.27637 11.2764C6.43273 11.2164 9.35637 11.2764 9.40546 11.2764C9.62297 11.2749 9.83532 11.3426 10.0118 11.4697C10.1883 11.5969 10.3198 11.7769 10.3873 11.9836C10.9282 13.3673 11.6681 14.6646 12.5836 15.8345C12.7119 15.9904 12.8619 16.1269 13.0291 16.24C13.2673 16.4036 13.4927 16.3473 13.5909 16.0709C13.7074 15.69 13.7758 15.2961 13.7946 14.8982C13.8109 14.1091 13.7946 13.5909 13.7509 12.8018C13.7218 12.2964 13.5436 11.8545 12.7982 11.7109C12.5691 11.6691 12.5491 11.48 12.6964 11.2909C13.0036 10.9 13.4236 10.8364 13.8946 10.8127C14.5964 10.7727 15.2982 10.8 16 10.8127H16.1527C16.4582 10.8116 16.7629 10.8427 17.0618 10.9055C17.2387 10.9416 17.3992 11.0338 17.5194 11.1684C17.6396 11.3031 17.7132 11.4729 17.7291 11.6527C17.7652 11.8518 17.7804 12.0541 17.7746 12.2564C17.7564 13.1164 17.7146 13.9782 17.7055 14.8382C17.697 15.1794 17.7281 15.5205 17.7982 15.8545C17.8982 16.3127 18.2127 16.4273 18.5255 16.0964C18.9307 15.6695 19.3022 15.2118 19.6364 14.7273C20.2287 13.8441 20.7168 12.8954 21.0909 11.9C21.2946 11.3891 21.4546 11.2764 22 11.2764H25.1018C25.2863 11.2731 25.4701 11.2976 25.6473 11.3491C25.71 11.3656 25.7686 11.3948 25.8195 11.435C25.8703 11.4752 25.9124 11.5254 25.9429 11.5826C25.9735 11.6398 25.9919 11.7027 25.997 11.7673C26.0022 11.8319 25.9939 11.8969 25.9727 11.9582C25.82 12.6382 25.4527 13.2182 25.0636 13.7764C24.4327 14.6691 23.7673 15.54 23.1218 16.4218C23.0442 16.5358 22.9731 16.6542 22.9091 16.7764C22.6655 17.2164 22.6836 17.4618 23.0364 17.8255C23.6 18.4055 24.2018 18.9473 24.7455 19.5436C25.1442 19.9775 25.5043 20.4454 25.8218 20.9418C26.2091 21.5673 25.9636 22.1564 25.2218 22.2618Z" fill="#002AC0"></path>
    </g>
    <defs>
      <clipPath id="clip0_141_3338">
        <rect width="32" height="32" fill="white"></rect>
      </clipPath>
    </defs>
  </symbol>
  <symbol fill="none" xmlns="http://www.w3.org/2000/svg" viewBox="0 0 32 32" id="whatsapp">
    <g clip-path="url(#clip0_141_3335)">
      <path d="M16 0C7.16479 0 0 7.16479 0 16C0 24.8352 7.16479 32 16 32C24.8352 32 32 24.8352 32 16C32 7.16479 24.8352 0 16 0ZM16.3391 25.3157C16.3389 25.3157 16.3394 25.3157 16.3391 25.3157H16.3352C14.7324 25.3149 13.1575 24.9131 11.7588 24.1504L6.68237 25.4817L8.04102 20.5208C7.20288 19.0691 6.76196 17.4221 6.7627 15.7349C6.76489 10.4565 11.0608 6.16235 16.3391 6.16235C18.9006 6.16333 21.3052 7.1604 23.113 8.96973C24.9211 10.7793 25.9163 13.1846 25.9153 15.7424C25.9131 21.021 21.6167 25.3157 16.3391 25.3157Z" fill="#002AC0"></path>
      <path d="M16.3418 7.7793C11.9514 7.7793 8.38086 11.3484 8.37891 15.7356C8.37842 17.239 8.79932 18.7031 9.59595 19.97L9.78516 20.271L8.98096 23.2073L11.9934 22.4172L12.2842 22.5896C13.5061 23.3147 14.907 23.6982 16.3352 23.6987H16.3384C20.7253 23.6987 24.2959 20.1294 24.2979 15.7419C24.2986 13.6157 23.4714 11.6167 21.9688 10.1128C20.4661 8.60889 18.4675 7.78003 16.3418 7.7793ZM21.0234 19.1565C20.824 19.7151 19.8682 20.2251 19.4084 20.2939C18.9961 20.3555 18.4746 20.3811 17.9014 20.1992C17.5537 20.0889 17.1082 19.9417 16.5371 19.6953C14.137 18.6592 12.5693 16.2432 12.4497 16.0835C12.3301 15.9238 11.4727 14.7864 11.4727 13.6089C11.4727 12.4316 12.0908 11.8528 12.3101 11.6135C12.5295 11.374 12.7888 11.3142 12.9482 11.3142C13.1077 11.3142 13.2673 11.3157 13.4067 11.3225C13.5537 11.3298 13.751 11.2666 13.9451 11.7332C14.1445 12.2122 14.623 13.3894 14.6829 13.509C14.7427 13.6289 14.7825 13.7686 14.7029 13.9282C14.623 14.0879 14.3579 14.4324 14.1047 14.7463C13.9985 14.8779 13.8601 14.9951 13.9998 15.2346C14.1392 15.4739 14.6196 16.2573 15.3308 16.8916C16.2449 17.7065 17.0159 17.959 17.2551 18.0789C17.4941 18.1985 17.6338 18.1785 17.7734 18.019C17.9128 17.8594 18.3716 17.3206 18.531 17.0811C18.6904 16.8416 18.8501 16.8816 19.0693 16.9614C19.2888 17.041 20.4651 17.6199 20.7043 17.7395C20.9436 17.8594 21.103 17.9192 21.1628 18.019C21.2229 18.1189 21.2229 18.5977 21.0234 19.1565Z" fill="#002AC0"></path>
    </g>
    <defs>
      <clipPath id="clip0_141_3335">
        <rect width="32" height="32" fill="white"></rect>
      </clipPath>
    </defs>
  </symbol>
  <symbol fill="none" xmlns="http://www.w3.org/2000/svg" viewBox="0 0 29 29" id="burger">
    <g clip-path="url(#clip0_141_3487)">
      <path d="M27.7917 15.6833H1.20833C0.541331 15.6833 0 15.1419 0 14.4749C0 13.8079 0.541331 13.2666 1.20833 13.2666H27.7917C28.4587 13.2666 29 13.8079 29 14.4749C29 15.1419 28.4587 15.6833 27.7917 15.6833Z" fill="white"></path>
      <path d="M27.7917 6.41911H1.20833C0.541331 6.41911 0 5.87778 0 5.21077C0 4.54377 0.541331 4.00244 1.20833 4.00244H27.7917C28.4587 4.00244 29 4.54377 29 5.21077C29 5.87778 28.4587 6.41911 27.7917 6.41911Z" fill="white"></path>
      <path d="M27.7917 24.9469H1.20833C0.541331 24.9469 0 24.4056 0 23.7386C0 23.0716 0.541331 22.5303 1.20833 22.5303H27.7917C28.4587 22.5303 29 23.0716 29 23.7386C29 24.4056 28.4587 24.9469 27.7917 24.9469Z" fill="white"></path>
    </g>
    <defs>
      <clipPath id="clip0_141_3487">
        <rect width="29" height="29" fill="white"></rect>
      </clipPath>
    </defs>
  </symbol>
  <symbol fill="none" xmlns="http://www.w3.org/2000/svg" viewBox="0 0 13 10" id="check">
    <path fill-rule="evenodd" clip-rule="evenodd" d="M12.7424 0.766061C13.0223 1.01101 13.0477 1.43773 12.7987 1.71409L5.78946 9.49395C5.53916 9.77175 5.10942 9.78941 4.83717 9.53315L0.781151 5.71475C0.528204 5.47661 0.503991 5.07981 0.721011 4.80855C0.960478 4.50921 1.40642 4.46801 1.69141 4.72435L4.83834 7.55495C5.11182 7.80095 5.53286 7.77895 5.77926 7.50581L11.8083 0.821207C12.0522 0.550701 12.4683 0.526181 12.7424 0.766061Z" fill="white"></path>
  </symbol>
  <symbol fill="none" xmlns="http://www.w3.org/2000/svg" viewBox="0 0 32 32" id="facebook">
    <g clip-path="url(#clip0_141_3331)">
      <path d="M16 0C7.17764 0 0 7.17764 0 16C0 24.8217 7.17764 32 16 32C24.8217 32 32 24.8217 32 16C32 7.17764 24.823 0 16 0ZM19.9791 16.5633H17.376V25.8413H13.5187C13.5187 25.8413 13.5187 20.7718 13.5187 16.5633H11.6852V13.2841H13.5187V11.1631C13.5187 9.64408 14.2406 7.27044 17.4114 7.27044L20.2697 7.2814V10.4645C20.2697 10.4645 18.5328 10.4645 18.1951 10.4645C17.8574 10.4645 17.3773 10.6334 17.3773 11.3578V13.2848H20.3161L19.9791 16.5633Z" fill="#002AC0"></path>
    </g>
    <defs>
      <clipPath id="clip0_141_3331">
        <rect width="32" height="32" fill="white"></rect>
      </clipPath>
    </defs>
  </symbol>
  <symbol fill="none" xmlns="http://www.w3.org/2000/svg" viewBox="0 0 33 31" id="icon">
    <path d="M32.0608 13.7778L27.9231 4.59259H30.4615V2.2963H17.7692V0H15.2308V2.2963H2.53846V4.59259H5.07692L0.964616 13.7778H0V16.0741H0.380769C0.776769 17.2176 1.58146 18.2096 2.66538 18.8985C3.73572 19.6006 5.02402 19.9787 6.34615 19.9787C7.66829 19.9787 8.95658 19.6006 10.0269 18.8985C11.1118 18.2054 11.9216 17.2152 12.3369 16.0741H12.6923V13.7778H11.55L7.31077 4.59259H15.2308V22.963H10.1538L9.16385 23.3763L4.08692 29.14L5.07692 31H27.9231L28.9131 29.14L23.8362 23.3763L22.8462 22.963H17.7692V4.59259H25.7146L21.4754 13.7778H20.3077V16.0741H20.6885C21.1036 17.2118 21.9049 18.202 22.9782 18.9039C24.0515 19.6059 25.3421 19.9837 26.6665 19.9837C27.9909 19.9837 29.2816 19.6059 30.3549 18.9039C31.4282 18.202 32.2294 17.2118 32.6446 16.0741H33V13.7778H32.0608ZM8.17385 17.2452C7.61403 17.5255 6.98595 17.6754 6.34615 17.6815C5.71393 17.6785 5.09322 17.5282 4.54385 17.2452C3.98363 16.9674 3.51164 16.5642 3.17308 16.0741H9.51923C9.18352 16.5582 8.72153 16.9603 8.17385 17.2452ZM8.80846 13.7778H3.73154L6.27 8.26667L8.80846 13.7778ZM22.2369 25.2593L25.3846 28.7037H7.61538L10.7631 25.2593H22.2369ZM26.7554 8.31259L29.2938 13.8237H24.2169L26.7554 8.31259ZM28.4815 17.2911C27.9265 17.5821 27.2953 17.7328 26.6538 17.7274C26.02 17.7356 25.3961 17.5845 24.8515 17.2911C24.2905 16.9941 23.8195 16.576 23.4808 16.0741H29.8269C29.5122 16.585 29.0463 17.0065 28.4815 17.2911Z" fill="white"></path>
  </symbol>
  <symbol fill="none" xmlns="http://www.w3.org/2000/svg" viewBox="0 0 32 32" id="instagram">
    <g clip-path="url(#clip0_141_3325)">
      <path d="M19.0625 16C19.0625 17.6914 17.6914 19.0625 16 19.0625C14.3086 19.0625 12.9375 17.6914 12.9375 16C12.9375 14.3086 14.3086 12.9375 16 12.9375C17.6914 12.9375 19.0625 14.3086 19.0625 16Z" fill="#002AC0"></path>
      <path d="M23.1611 10.5813C23.0139 10.1824 22.7791 9.82129 22.4739 9.5249C22.1775 9.21973 21.8167 8.98486 21.4175 8.83765C21.0938 8.71191 20.6074 8.56226 19.7117 8.52148C18.7427 8.47729 18.4521 8.46777 15.999 8.46777C13.5457 8.46777 13.2551 8.47705 12.2864 8.52124C11.3906 8.56226 10.9041 8.71191 10.5806 8.83765C10.1814 8.98486 9.82031 9.21973 9.52417 9.5249C9.21899 9.82129 8.98413 10.1821 8.83667 10.5813C8.71094 10.905 8.56128 11.3916 8.52051 12.2874C8.47632 13.2561 8.4668 13.5466 8.4668 16C8.4668 18.4531 8.47632 18.7437 8.52051 19.7126C8.56128 20.6084 8.71094 21.0947 8.83667 21.4185C8.98413 21.8176 9.21875 22.1785 9.52393 22.4749C9.82031 22.78 10.1812 23.0149 10.5803 23.1621C10.9041 23.2881 11.3906 23.4377 12.2864 23.4785C13.2551 23.5227 13.5454 23.532 15.9988 23.532C18.4524 23.532 18.7429 23.5227 19.7114 23.4785C20.6072 23.4377 21.0938 23.2881 21.4175 23.1621C22.2188 22.853 22.8521 22.2197 23.1611 21.4185C23.2869 21.0947 23.4365 20.6084 23.4775 19.7126C23.5217 18.7437 23.531 18.4531 23.531 16C23.531 13.5466 23.5217 13.2561 23.4775 12.2874C23.4368 11.3916 23.2871 10.905 23.1611 10.5813ZM15.999 20.7175C13.3933 20.7175 11.281 18.6055 11.281 15.9998C11.281 13.394 13.3933 11.282 15.999 11.282C18.6045 11.282 20.7168 13.394 20.7168 15.9998C20.7168 18.6055 18.6045 20.7175 15.999 20.7175ZM20.9033 12.198C20.2944 12.198 19.8008 11.7043 19.8008 11.0955C19.8008 10.4866 20.2944 9.99292 20.9033 9.99292C21.5122 9.99292 22.0059 10.4866 22.0059 11.0955C22.0056 11.7043 21.5122 12.198 20.9033 12.198Z" fill="#002AC0"></path>
      <path d="M16 0C7.16479 0 0 7.16479 0 16C0 24.8352 7.16479 32 16 32C24.8352 32 32 24.8352 32 16C32 7.16479 24.8352 0 16 0ZM25.1321 19.7878C25.0876 20.7659 24.9321 21.4336 24.7051 22.0181C24.2278 23.2522 23.2522 24.2278 22.0181 24.7051C21.4338 24.9321 20.7659 25.0874 19.7881 25.1321C18.8083 25.1768 18.4954 25.1875 16.0002 25.1875C13.5049 25.1875 13.1921 25.1768 12.2122 25.1321C11.2344 25.0874 10.5664 24.9321 9.98218 24.7051C9.3689 24.4744 8.81372 24.1128 8.35474 23.6453C7.88745 23.1865 7.52588 22.6311 7.29517 22.0181C7.06812 21.4338 6.9126 20.7659 6.86816 19.7881C6.823 18.8081 6.8125 18.4951 6.8125 16C6.8125 13.5049 6.823 13.1919 6.86792 12.2122C6.91235 11.2341 7.06763 10.5664 7.29468 9.98193C7.52539 9.3689 7.88721 8.81348 8.35474 8.35474C8.81348 7.88721 9.3689 7.52563 9.98193 7.29492C10.5664 7.06787 11.2341 6.9126 12.2122 6.86792C13.1919 6.82324 13.5049 6.8125 16 6.8125C18.4951 6.8125 18.8081 6.82324 19.7878 6.86816C20.7659 6.9126 21.4336 7.06787 22.0181 7.29468C22.6311 7.52539 23.1865 7.88721 23.6455 8.35474C24.1128 8.81372 24.4746 9.3689 24.7051 9.98193C24.9324 10.5664 25.0876 11.2341 25.1323 12.2122C25.177 13.1919 25.1875 13.5049 25.1875 16C25.1875 18.4951 25.177 18.8081 25.1321 19.7878Z" fill="#002AC0"></path>
    </g>
    <defs>
      <clipPath id="clip0_141_3325">
        <rect width="32" height="32" fill="white"></rect>
      </clipPath>
    </defs>
  </symbol>
</svg>