<svg width="33" height="31" viewBox="0 0 33 31" fill="none" xmlns="http://www.w3.org/2000/svg">
<path d="M32.0608 13.7778L27.9231 4.59259H30.4615V2.2963H17.7692V0H15.2308V2.2963H2.53846V4.59259H5.07692L0.964616 13.7778H0V16.0741H0.380769C0.776769 17.2176 1.58146 18.2096 2.66538 18.8985C3.73572 19.6006 5.02402 19.9787 6.34615 19.9787C7.66829 19.9787 8.95658 19.6006 10.0269 18.8985C11.1118 18.2054 11.9216 17.2152 12.3369 16.0741H12.6923V13.7778H11.55L7.31077 4.59259H15.2308V22.963H10.1538L9.16385 23.3763L4.08692 29.14L5.07692 31H27.9231L28.9131 29.14L23.8362 23.3763L22.8462 22.963H17.7692V4.59259H25.7146L21.4754 13.7778H20.3077V16.0741H20.6885C21.1036 17.2118 21.9049 18.202 22.9782 18.9039C24.0515 19.6059 25.3421 19.9837 26.6665 19.9837C27.9909 19.9837 29.2816 19.6059 30.3549 18.9039C31.4282 18.202 32.2294 17.2118 32.6446 16.0741H33V13.7778H32.0608ZM8.17385 17.2452C7.61403 17.5255 6.98595 17.6754 6.34615 17.6815C5.71393 17.6785 5.09322 17.5282 4.54385 17.2452C3.98363 16.9674 3.51164 16.5642 3.17308 16.0741H9.51923C9.18352 16.5582 8.72153 16.9603 8.17385 17.2452ZM8.80846 13.7778H3.73154L6.27 8.26667L8.80846 13.7778ZM22.2369 25.2593L25.3846 28.7037H7.61538L10.7631 25.2593H22.2369ZM26.7554 8.31259L29.2938 13.8237H24.2169L26.7554 8.31259ZM28.4815 17.2911C27.9265 17.5821 27.2953 17.7328 26.6538 17.7274C26.02 17.7356 25.3961 17.5845 24.8515 17.2911C24.2905 16.9941 23.8195 16.576 23.4808 16.0741H29.8269C29.5122 16.585 29.0463 17.0065 28.4815 17.2911Z" fill="white"/>
</svg>
