<svg width="40" height="40" viewBox="0 0 40 40" fill="none" xmlns="http://www.w3.org/2000/svg">
<path d="M21.888 15.1038H17.3567V10.5726C17.3567 10.1557 17.0184 9.81738 16.6015 9.81738C16.1847 9.81738 15.8463 10.1557 15.8463 10.5726V15.1038H11.3151C10.8983 15.1038 10.5599 15.4421 10.5599 15.859C10.5599 16.2759 10.8983 16.6142 11.3151 16.6142H15.8463V21.1454C15.8463 21.5623 16.1847 21.9006 16.6015 21.9006C17.0184 21.9006 17.3567 21.5623 17.3567 21.1454V16.6142H21.888C22.3048 16.6142 22.6432 16.2759 22.6432 15.859C22.6432 15.4421 22.3048 15.1038 21.888 15.1038Z" fill="white"/>
<path d="M39.0469 38.7214L27.8253 27.0513C30.6876 24.1808 32.4608 20.2235 32.4608 15.8592C32.4608 7.114 25.3468 0 16.6015 0C7.85631 0 0.74231 7.114 0.74231 15.8592C0.74231 24.6045 7.85631 31.7185 16.6015 31.7185C20.4402 31.7185 23.9632 30.3463 26.7092 28.0693L37.9579 39.7682C38.1059 39.923 38.3038 40 38.5024 40C38.6912 40 38.8792 39.9298 39.0257 39.7893C39.3263 39.5001 39.3354 39.022 39.0469 38.7214ZM2.25271 15.8592C2.25271 7.94698 8.68929 1.5104 16.6015 1.5104C24.5138 1.5104 30.9504 7.94698 30.9504 15.8592C30.9504 23.7715 24.5138 30.2081 16.6015 30.2081C8.68929 30.2081 2.25271 23.7715 2.25271 15.8592Z" fill="white"/>
</svg>
