<svg width="33" height="32" viewBox="0 0 33 32" fill="none" xmlns="http://www.w3.org/2000/svg">
<g clip-path="url(#clip0_208_167)">
<path d="M29.4242 4.36328H3.24231C1.63569 4.36328 0.333252 5.66572 0.333252 7.27241V24.727C0.333252 26.3336 1.63569 27.636 3.24231 27.636H29.4241C31.0308 27.636 32.3332 26.3336 32.3332 24.727V7.27241C32.3333 5.66572 31.0308 4.36328 29.4242 4.36328ZM3.24231 5.81784H29.4241C29.5903 5.81891 29.7551 5.84841 29.9114 5.90509L17.3223 18.4942C16.7816 19.0385 15.9021 19.0413 15.3579 18.5007C15.3558 18.4985 15.3536 18.4963 15.3514 18.4942L2.75506 5.90509C2.91131 5.84841 3.07613 5.81884 3.24231 5.81784ZM1.78781 24.7269V7.27241C1.78038 7.18772 1.78038 7.10253 1.78781 7.01784L10.7914 15.9997L1.78781 24.9815C1.78038 24.8968 1.78038 24.8116 1.78781 24.7269ZM29.4242 26.1815H3.24231C3.07613 26.1804 2.91131 26.1509 2.75506 26.0942L11.8241 17.0252L14.3187 19.5197C15.4271 20.6323 17.2276 20.6357 18.3402 19.5273C18.3428 19.5248 18.3453 19.5222 18.3478 19.5197L20.8423 17.0252L29.9114 26.0942C29.7552 26.1509 29.5904 26.1805 29.4242 26.1815ZM30.8787 24.9815L21.8751 15.9997L30.8787 7.01784C30.8861 7.10253 30.8861 7.18772 30.8787 7.27241V24.727C30.8861 24.8116 30.8861 24.8968 30.8787 24.9815Z" fill="#002AC0"/>
</g>
<defs>
<clipPath id="clip0_208_167">
<rect width="32" height="32" fill="white" transform="translate(0.333252)"/>
</clipPath>
</defs>
</svg>
