<svg width="33" height="46" viewBox="0 0 33 46" fill="none" xmlns="http://www.w3.org/2000/svg">
<g clip-path="url(#clip0_208_159)">
<path d="M24.3776 27.584C23.7634 26.9445 23.0226 26.6026 22.2375 26.6026C21.4587 26.6026 20.7115 26.9382 20.072 27.5777L18.0712 29.5722C17.9066 29.4835 17.742 29.4012 17.5837 29.3189C17.3557 29.2049 17.1404 29.0973 16.9568 28.9833C15.0826 27.793 13.3794 26.2417 11.7458 24.2346C10.9544 23.2341 10.4225 22.392 10.0363 21.5372C10.5555 21.0624 11.0367 20.5685 11.5052 20.0936C11.6825 19.9163 11.8598 19.7327 12.0371 19.5554C13.3667 18.2258 13.3667 16.5035 12.0371 15.1739L10.3085 13.4453C10.1122 13.249 9.90963 13.0464 9.71968 12.8438C9.33978 12.4512 8.94088 12.046 8.52932 11.6661C7.91515 11.0583 7.18067 10.7354 6.4082 10.7354C5.63573 10.7354 4.88859 11.0583 4.25542 11.6661C4.24909 11.6724 4.24909 11.6724 4.24276 11.6788L2.08998 13.8506C1.27952 14.661 0.817303 15.6488 0.715995 16.7948C0.564034 18.6437 1.10856 20.3659 1.52645 21.4929C2.55219 24.2599 4.08446 26.8242 6.37021 29.5722C9.1435 32.8837 12.4803 35.4987 16.292 37.3412C17.7483 38.0313 19.6921 38.8481 21.8639 38.9874C21.9969 38.9938 22.1362 39.0001 22.2628 39.0001C23.7254 39.0001 24.9538 38.4746 25.9162 37.4298C25.9225 37.4172 25.9352 37.4108 25.9415 37.3982C26.2708 36.9993 26.6507 36.6384 27.0496 36.2521C27.3218 35.9925 27.6004 35.7203 27.8727 35.4353C28.4995 34.7832 28.8288 34.0234 28.8288 33.2446C28.8288 32.4594 28.4932 31.706 27.8537 31.0728L24.3776 27.584ZM26.6443 34.2513C26.638 34.2513 26.638 34.2576 26.6443 34.2513C26.3974 34.5172 26.1441 34.7579 25.8719 35.0238C25.4603 35.4164 25.0424 35.8279 24.6499 36.2901C24.0103 36.974 23.2569 37.2969 22.2691 37.2969C22.1742 37.2969 22.0728 37.2969 21.9779 37.2905C20.0974 37.1702 18.3498 36.4358 17.0391 35.8089C13.4554 34.074 10.3085 31.611 7.69354 28.4895C5.53443 25.8871 4.0908 23.4811 3.13471 20.8977C2.54586 19.3211 2.33058 18.0928 2.42556 16.9341C2.48887 16.1933 2.7738 15.5791 3.29933 15.0536L5.45844 12.8945C5.7687 12.6032 6.09795 12.4449 6.42086 12.4449C6.81976 12.4449 7.14268 12.6855 7.34529 12.8881C7.35162 12.8945 7.35796 12.9008 7.36429 12.9071C7.75052 13.268 8.11776 13.6416 8.504 14.0405C8.70028 14.2431 8.90289 14.4457 9.10551 14.6547L10.8341 16.3832C11.5052 17.0544 11.5052 17.6749 10.8341 18.3461C10.6504 18.5297 10.4732 18.7133 10.2895 18.8906C9.75767 19.4351 9.25114 19.9417 8.70028 20.4355C8.68762 20.4482 8.67495 20.4545 8.66862 20.4672C8.12409 21.0117 8.2254 21.5436 8.33937 21.9045C8.3457 21.9235 8.35204 21.9425 8.35837 21.9615C8.80792 23.0505 9.44109 24.0763 10.4035 25.2983L10.4098 25.3046C12.1574 27.4574 13.9999 29.1353 16.0324 30.4206C16.292 30.5853 16.5579 30.7182 16.8112 30.8449C17.0391 30.9588 17.2544 31.0665 17.438 31.1804C17.4634 31.1931 17.4887 31.2121 17.514 31.2248C17.7293 31.3324 17.9319 31.3831 18.1409 31.3831C18.6664 31.3831 18.9956 31.0538 19.1033 30.9462L21.2687 28.7807C21.484 28.5654 21.8259 28.3058 22.2248 28.3058C22.6174 28.3058 22.9403 28.5528 23.1366 28.7681C23.1429 28.7744 23.1429 28.7744 23.1492 28.7807L26.638 32.2695C27.2902 32.9153 27.2902 33.5802 26.6443 34.2513Z" fill="#002AC0"/>
<path d="M16.8808 16.1361C18.5397 16.4147 20.0467 17.1998 21.2497 18.4029C22.4527 19.6059 23.2315 21.1128 23.5165 22.7717C23.5861 23.1896 23.947 23.4809 24.3586 23.4809C24.4092 23.4809 24.4536 23.4746 24.5042 23.4682C24.9728 23.3922 25.283 22.949 25.207 22.4805C24.8651 20.4733 23.9154 18.6435 22.4654 17.1935C21.0154 15.7435 19.1856 14.7938 17.1784 14.4519C16.7099 14.3759 16.273 14.6861 16.1907 15.1484C16.1084 15.6106 16.4123 16.0601 16.8808 16.1361Z" fill="#002AC0"/>
<path d="M30.6334 22.2336C30.0699 18.9285 28.5123 15.9209 26.1189 13.5275C23.7255 11.1342 20.7179 9.57655 17.4128 9.01303C16.9506 8.93072 16.5137 9.2473 16.4314 9.70952C16.3554 10.1781 16.6656 10.615 17.1342 10.6973C20.0848 11.1975 22.7757 12.5968 24.9158 14.7306C27.056 16.8707 28.4489 19.5617 28.9491 22.5122C29.0188 22.9301 29.3797 23.2214 29.7913 23.2214C29.8419 23.2214 29.8862 23.2151 29.9369 23.2087C30.3991 23.1391 30.7157 22.6959 30.6334 22.2336Z" fill="#002AC0"/>
</g>
<defs>
<clipPath id="clip0_208_159">
<rect width="32" height="46" fill="white" transform="translate(0.666748)"/>
</clipPath>
</defs>
</svg>
