<svg width="32" height="46" viewBox="0 0 32 46" fill="none" xmlns="http://www.w3.org/2000/svg">
<path d="M16 9C9.382 9 4 14.382 4 21C4 29.318 14.832 40.246 15.292 40.708C15.488 40.902 15.744 41 16 41C16.256 41 16.512 40.902 16.708 40.708C17.168 40.246 28 29.318 28 21C28 14.382 22.618 9 16 9ZM16 38.554C13.612 35.998 6 27.354 6 21C6 15.486 10.486 11 16 11C21.514 11 26 15.486 26 21C26 27.348 18.388 35.998 16 38.554Z" fill="#002AC0"/>
<path d="M16 15C12.692 15 10 17.692 10 21C10 24.308 12.692 27 16 27C19.308 27 22 24.308 22 21C22 17.692 19.308 15 16 15ZM16 25C13.794 25 12 23.206 12 21C12 18.794 13.794 17 16 17C18.206 17 20 18.794 20 21C20 23.206 18.206 25 16 25Z" fill="#002AC0"/>
</svg>
