<svg width="50" height="50" viewBox="0 0 50 50" fill="none" xmlns="http://www.w3.org/2000/svg">
<circle cx="25" cy="25" r="24.5" stroke="#C4C7CC"/>
<path d="M31.0125 24.1C28.95 22.0375 26.8875 19.975 24.825 17.9125C24.525 17.6125 24.225 17.3125 23.925 17.0125C23.25 16.3375 22.1625 17.3875 22.875 18.0625C24.9375 20.125 27 22.1875 29.0625 24.25C29.175 24.3625 29.2875 24.475 29.4 24.5875C27.525 26.4625 25.65 28.3375 23.775 30.2125C23.475 30.5125 23.2125 30.775 22.9125 31.075C22.2375 31.75 23.2875 32.8375 23.9625 32.125L30.1125 25.975L30.975 25.1125C31.3125 24.8875 31.3125 24.4 31.0125 24.1Z" fill="#002AC0"/>
</svg>
